<?xml version="1.0" encoding="UTF-8"?>
<svg xmlns="http://www.w3.org/2000/svg" xmlns:xlink="http://www.w3.org/1999/xlink" width="375pt" height="374.999991pt" viewBox="0 0 375 374.999991" version="1.2">
<defs>
<clipPath id="clip1">
  <path d="M 6.71875 79 L 294 79 L 294 339.429688 L 6.71875 339.429688 Z M 6.71875 79 "/>
</clipPath>
<clipPath id="clip2">
  <path d="M 6.71875 35.71875 L 368.609375 35.71875 L 368.609375 332.578125 L 6.71875 332.578125 Z M 6.71875 35.71875 "/>
</clipPath>
<clipPath id="clip3">
  <path d="M 58.429688 116.394531 L 294 116.394531 L 294 339.429688 L 58.429688 339.429688 Z M 58.429688 116.394531 "/>
</clipPath>
<clipPath id="clip4">
  <path d="M 58.429688 86 L 368.609375 86 L 368.609375 339.429688 L 58.429688 339.429688 Z M 58.429688 86 "/>
</clipPath>
<clipPath id="clip5">
  <path d="M 131.53125 57.054688 L 198.902344 57.054688 L 198.902344 117 L 131.53125 117 Z M 131.53125 57.054688 "/>
</clipPath>
<clipPath id="clip6">
  <path d="M 144 57.054688 L 186 57.054688 L 186 93 L 144 93 Z M 144 57.054688 "/>
</clipPath>
<clipPath id="clip7">
  <path d="M 262.972656 154.960938 L 325.222656 154.960938 L 325.222656 220.210938 L 262.972656 220.210938 Z M 262.972656 154.960938 "/>
</clipPath>
<clipPath id="clip8">
  <path d="M 150.113281 257 L 208.613281 257 L 208.613281 321.355469 L 150.113281 321.355469 Z M 150.113281 257 "/>
</clipPath>
<clipPath id="clip9">
  <path d="M 46.074219 152 L 108.757812 152 L 108.757812 209 L 46.074219 209 Z M 46.074219 152 "/>
</clipPath>
</defs>
<g id="surface1">
<g clip-path="url(#clip1)" clip-rule="nonzero">
<path style=" stroke:none;fill-rule:evenodd;fill:rgb(45.098877%,45.098877%,45.098877%);fill-opacity:1;" d="M 130.902344 256.757812 L 130.902344 252.210938 L 143.59375 259.578125 L 143.59375 264.511719 L 143.554688 264.511719 L 132.527344 258.050781 L 130.902344 257.109375 Z M 100.5 221.785156 L 113.191406 229.144531 L 113.191406 234.082031 L 113.15625 234.082031 L 100.5 226.679688 Z M 58.703125 219.316406 L 45.851562 211.875 L 6.71875 189.199219 L 6.71875 182.191406 L 26.230469 193.410156 L 26.191406 193.429688 L 76.058594 222.097656 C 76.65625 222.515625 77.429688 222.984375 78.367188 223.507812 L 78.367188 230.710938 L 78.171875 230.558594 L 59.039062 219.476562 L 58.898438 219.394531 L 58.898438 219.476562 Z M 159.929688 328.152344 L 159.851562 328.113281 L 159.851562 328.152344 L 159.65625 327.992188 L 117.542969 303.597656 L 107.671875 297.878906 L 107.671875 290.867188 L 127.21875 302.109375 L 127.140625 302.144531 L 158.8125 320.339844 C 159.128906 320.535156 159.476562 320.734375 159.851562 320.945312 L 177.011719 330.816406 C 177.609375 331.230469 178.382812 331.703125 179.320312 332.226562 L 179.320312 339.429688 L 179.125 339.273438 Z M 123.300781 246.359375 L 120.699219 244.832031 L 115.703125 241.914062 L 115.703125 237.019531 L 128.394531 244.378906 L 128.394531 249.316406 L 128.355469 249.316406 Z M 273.886719 225.855469 L 264.054688 220.160156 L 221.902344 195.742188 L 221.902344 188.730469 L 241.414062 199.953125 L 241.371094 199.96875 L 291.242188 228.636719 C 291.84375 229.054688 292.613281 229.527344 293.554688 230.046875 L 293.554688 237.253906 L 293.359375 237.097656 L 274.222656 226.011719 L 274.082031 225.9375 L 274.082031 226.011719 Z M 231.148438 219.828125 L 266.601562 240.269531 L 266.601562 245.203125 L 266.484375 245.085938 L 243.742188 231.910156 L 231.148438 224.601562 Z M 253.164062 255.464844 L 253.164062 260.398438 L 253.046875 260.28125 L 241.160156 253.386719 L 217.710938 239.800781 L 217.710938 235.019531 Z M 204.3125 250.253906 L 239.765625 270.699219 L 239.765625 275.632812 L 239.648438 275.515625 L 204.3125 255.035156 Z M 198.671875 130.808594 L 211.363281 138.171875 L 211.363281 143.105469 L 211.324219 143.105469 L 198.671875 135.703125 Z M 241.804688 173.496094 L 241.765625 173.496094 L 239.277344 172.027344 L 229.113281 166.09375 L 229.113281 161.199219 L 241.804688 168.5625 Z M 124.535156 107.894531 L 87.339844 86.355469 L 87.339844 79.347656 L 103.128906 88.414062 L 103.128906 88.394531 L 122.675781 99.636719 L 122.59375 99.671875 L 153.875 117.628906 C 154 117.707031 154.132812 117.785156 154.269531 117.863281 C 154.585938 118.058594 154.933594 118.261719 155.304688 118.46875 L 172.464844 128.339844 C 173.066406 128.757812 173.835938 129.226562 174.777344 129.75 L 174.777344 136.957031 L 174.582031 136.800781 L 155.386719 125.679688 L 155.304688 125.640625 L 155.304688 125.679688 L 155.109375 125.519531 C 150.140625 122.644531 145.171875 119.765625 140.207031 116.886719 C 140.121094 116.839844 140.046875 116.792969 139.96875 116.746094 L 139.714844 116.609375 L 139.519531 116.492188 L 139.519531 116.632812 L 139.324219 116.476562 Z M 100.542969 114.515625 L 135.992188 134.957031 L 135.992188 139.894531 L 135.878906 139.777344 L 102.65625 120.507812 L 100.542969 119.292969 Z M 84.832031 129.710938 L 120.285156 150.15625 L 120.285156 155.089844 L 120.167969 154.972656 L 112.628906 150.605469 L 84.832031 134.492188 Z M 213.871094 146.003906 L 226.566406 153.367188 L 226.566406 158.300781 L 226.527344 158.300781 L 217.28125 152.898438 L 214.128906 151.035156 L 213.871094 150.898438 L 213.871094 146.003906 "/>
</g>
<g clip-path="url(#clip2)" clip-rule="nonzero">
<path style=" stroke:none;fill-rule:evenodd;fill:rgb(95.289612%,97.648621%,99.21875%);fill-opacity:1;" d="M 216.675781 266.921875 L 252.085938 287.460938 L 254.378906 288.792969 L 191.542969 325.136719 C 185.875 328.398438 181.804688 330.761719 179.320312 332.226562 C 178.382812 331.703125 177.609375 331.230469 177.011719 330.816406 L 159.851562 320.945312 C 159.476562 320.734375 159.128906 320.535156 158.8125 320.339844 L 127.140625 302.144531 L 127.21875 302.109375 L 107.671875 290.867188 L 126.730469 279.785156 L 162.101562 259.226562 L 182.726562 247.242188 L 202.179688 258.519531 L 202.199219 258.519531 Z M 139.871094 247.023438 L 166.273438 231.730469 L 179.046875 239.132812 L 143.59375 259.578125 L 130.902344 252.210938 Z M 148.644531 208.703125 L 113.191406 229.144531 L 100.5 221.785156 L 115.46875 213.128906 L 135.878906 201.300781 Z M 153.425781 180.074219 L 90.589844 216.417969 C 84.921875 219.683594 80.851562 222.042969 78.367188 223.507812 C 77.429688 222.984375 76.65625 222.515625 76.058594 222.097656 L 26.191406 193.429688 L 26.230469 193.410156 L 6.71875 182.191406 L 81.777344 138.5625 L 101.207031 149.824219 L 101.246094 149.800781 Z M 128.394531 244.378906 L 115.703125 237.019531 L 136.246094 225.113281 L 151.074219 216.539062 L 163.847656 223.9375 Z M 253.164062 255.464844 L 217.710938 235.019531 L 230.484375 227.621094 L 240.804688 233.59375 L 265.855469 248.101562 Z M 231.148438 219.828125 L 243.917969 212.425781 L 260.667969 222.117188 L 279.292969 232.90625 L 266.601562 240.269531 Z M 239.765625 270.699219 L 204.3125 250.253906 L 217.085938 242.851562 L 238.21875 255.09375 L 252.457031 263.335938 Z M 368.609375 186.613281 L 305.773438 222.960938 C 300.109375 226.222656 296.03125 228.585938 293.554688 230.046875 C 292.613281 229.527344 291.84375 229.054688 291.242188 228.636719 L 241.371094 199.96875 L 241.414062 199.953125 L 221.902344 188.730469 L 222.136719 188.59375 L 257.515625 168.035156 L 296.960938 145.101562 L 316.390625 156.359375 L 316.429688 156.34375 Z M 241.804688 168.5625 L 229.113281 161.199219 L 264.484375 140.71875 L 277.257812 148.117188 Z M 135.992188 134.957031 L 100.542969 114.515625 L 113.3125 107.113281 L 119.582031 110.757812 L 148.6875 127.597656 Z M 120.285156 150.15625 L 84.832031 129.710938 L 97.601562 122.308594 L 98.5625 122.875 L 132.976562 142.792969 Z M 213.871094 146.003906 L 242.410156 129.476562 L 249.246094 125.519531 L 262.019531 132.925781 L 226.566406 153.367188 Z M 246.816406 117.726562 L 211.363281 138.171875 L 198.671875 130.808594 L 221.648438 117.511719 L 234.046875 110.324219 Z M 174.777344 129.75 C 173.835938 129.226562 173.066406 128.757812 172.464844 128.339844 L 155.304688 118.46875 C 154.933594 118.261719 154.585938 118.058594 154.269531 117.863281 C 154.132812 117.785156 154 117.707031 153.875 117.628906 L 122.59375 99.671875 L 122.675781 99.636719 L 103.128906 88.394531 L 103.128906 88.414062 L 87.339844 79.347656 L 162.398438 35.71875 L 178.089844 44.824219 L 178.1875 44.765625 L 197.636719 56.042969 L 197.652344 56.042969 L 249.835938 86.320312 L 187 122.660156 C 181.332031 125.925781 177.257812 128.289062 174.777344 129.75 "/>
</g>
<g clip-path="url(#clip3)" clip-rule="nonzero">
<path style=" stroke:none;fill-rule:evenodd;fill:rgb(0%,0%,0%);fill-opacity:1;" d="M 179.320312 339.429688 L 179.125 339.429688 L 179.125 339.273438 Z M 253.046875 260.28125 L 253.164062 260.398438 L 253.046875 260.398438 Z M 293.554688 237.253906 L 293.359375 237.253906 L 293.359375 237.097656 Z M 159.851562 328.152344 L 159.65625 328.152344 L 159.65625 327.992188 Z M 143.710938 264.394531 L 143.710938 264.511719 L 143.59375 264.511719 Z M 113.191406 234.082031 L 113.3125 233.964844 L 113.3125 234.082031 Z M 78.367188 230.710938 L 78.171875 230.710938 L 78.171875 230.558594 Z M 58.703125 219.316406 L 58.898438 219.476562 L 58.703125 219.476562 Z M 135.878906 139.777344 L 135.992188 139.894531 L 135.878906 139.894531 Z M 155.109375 125.519531 L 155.304688 125.679688 L 155.109375 125.679688 Z M 120.285156 155.089844 L 120.167969 155.089844 L 120.167969 154.972656 Z M 139.519531 116.632812 L 139.324219 116.632812 L 139.324219 116.476562 Z M 266.484375 245.085938 L 266.601562 245.203125 L 266.484375 245.203125 Z M 274.082031 226.011719 L 273.886719 226.011719 L 273.886719 225.855469 Z M 128.511719 249.199219 L 128.511719 249.316406 L 128.394531 249.316406 Z M 239.648438 275.515625 L 239.765625 275.632812 L 239.648438 275.632812 Z M 211.363281 143.105469 L 211.484375 142.988281 L 211.484375 143.105469 Z M 174.777344 136.957031 L 174.582031 136.957031 L 174.582031 136.800781 Z M 241.921875 173.378906 L 241.921875 173.496094 L 241.804688 173.496094 Z M 226.683594 158.183594 L 226.683594 158.300781 L 226.566406 158.300781 L 226.683594 158.183594 "/>
</g>
<g clip-path="url(#clip4)" clip-rule="nonzero">
<path style=" stroke:none;fill-rule:evenodd;fill:rgb(65.098572%,65.098572%,65.098572%);fill-opacity:1;" d="M 159.851562 328.152344 L 159.851562 328.113281 L 159.929688 328.152344 Z M 179.320312 332.226562 C 181.804688 330.761719 185.875 328.398438 191.542969 325.136719 L 254.378906 288.792969 L 254.378906 296 L 245.738281 301.011719 L 179.476562 339.429688 L 179.320312 339.429688 Z M 143.59375 264.511719 L 143.59375 259.578125 L 179.046875 239.132812 L 179.046875 243.910156 L 156.542969 256.953125 L 143.710938 264.394531 Z M 135.992188 139.894531 L 135.992188 134.957031 L 148.6875 127.597656 L 148.6875 132.492188 L 136.035156 139.894531 Z M 155.386719 125.679688 L 155.304688 125.679688 L 155.304688 125.640625 Z M 139.519531 116.632812 L 139.519531 116.492188 L 139.714844 116.609375 L 139.675781 116.632812 Z M 132.410156 222.902344 L 113.3125 233.964844 L 113.191406 234.082031 L 113.191406 229.144531 L 148.644531 208.703125 L 148.644531 213.480469 Z M 58.898438 219.476562 L 58.898438 219.394531 L 59.039062 219.476562 Z M 78.367188 223.507812 C 80.851562 222.042969 84.921875 219.683594 90.589844 216.417969 L 153.425781 180.074219 L 153.425781 187.28125 L 112.15625 211.210938 L 78.527344 230.710938 L 78.367188 230.710938 Z M 266.601562 240.269531 L 279.292969 232.90625 L 279.292969 237.800781 L 266.640625 245.203125 L 266.601562 245.203125 Z M 274.222656 226.011719 L 274.082031 226.011719 L 274.082031 225.9375 Z M 136.074219 244.8125 L 128.511719 249.199219 L 128.394531 249.316406 L 128.394531 244.378906 L 163.847656 223.9375 L 163.847656 228.714844 Z M 252.457031 264.960938 L 252.457031 268.234375 L 240.609375 275.164062 L 239.804688 275.632812 L 239.765625 275.632812 L 239.765625 270.699219 L 252.457031 263.335938 Z M 263.820312 254.191406 L 261.605469 255.484375 L 253.203125 260.398438 L 253.164062 260.398438 L 253.164062 255.464844 L 265.855469 248.101562 L 265.855469 252.996094 Z M 293.554688 237.253906 L 293.554688 230.046875 C 296.03125 228.585938 300.109375 226.222656 305.773438 222.960938 L 368.609375 186.613281 L 368.609375 193.824219 L 330.023438 216.203125 L 293.710938 237.253906 Z M 241.921875 173.378906 L 241.804688 173.496094 L 241.804688 168.5625 L 277.257812 148.117188 L 277.257812 152.898438 Z M 120.285156 150.15625 L 132.976562 142.792969 L 132.976562 147.6875 L 130.527344 149.117188 L 128.628906 150.230469 L 120.324219 155.089844 L 120.285156 155.089844 Z M 226.566406 153.367188 L 262.019531 132.925781 L 262.019531 137.699219 L 233.007812 154.523438 L 226.683594 158.183594 L 226.566406 158.300781 Z M 238.589844 127.28125 L 211.484375 142.988281 L 211.363281 143.105469 L 211.363281 138.171875 L 246.816406 117.726562 L 246.816406 122.507812 Z M 174.777344 129.75 C 177.257812 128.289062 181.332031 125.925781 187 122.660156 L 249.835938 86.320312 L 249.835938 93.523438 L 215.046875 113.695312 L 174.933594 136.957031 L 174.777344 136.957031 L 174.777344 129.75 "/>
</g>
<g clip-path="url(#clip5)" clip-rule="nonzero">
<path style=" stroke:none;fill-rule:nonzero;fill:rgb(25.489807%,72.158813%,51.368713%);fill-opacity:1;" d="M 131.53125 57.320312 L 165.21875 116.203125 L 198.902344 57.320312 L 185.429688 57.320312 L 165.21875 92.652344 L 144.839844 57.320312 Z M 131.53125 57.320312 "/>
</g>
<g clip-path="url(#clip6)" clip-rule="nonzero">
<path style=" stroke:none;fill-rule:nonzero;fill:rgb(20.779419%,28.62854%,36.859131%);fill-opacity:1;" d="M 144.839844 57.320312 L 165.21875 92.820312 L 185.429688 57.320312 L 172.964844 57.320312 L 165.21875 70.976562 L 157.300781 57.320312 Z M 144.839844 57.320312 "/>
</g>
<g clip-path="url(#clip7)" clip-rule="nonzero">
<path style=" stroke:none;fill-rule:nonzero;fill:rgb(74.119568%,74.119568%,74.119568%);fill-opacity:1;" d="M 294.050781 154.960938 L 262.988281 165.796875 L 267.894531 206.125 L 294.085938 220.390625 L 320.40625 205.933594 L 325.316406 165.601562 Z M 294.050781 154.960938 "/>
</g>
<path style=" stroke:none;fill-rule:nonzero;fill:rgb(71.759033%,10.978699%,10.978699%);fill-opacity:1;" d="M 322.078125 167.640625 L 294.152344 158.136719 L 294.152344 216.960938 L 317.644531 204.058594 Z M 322.078125 167.640625 "/>
<path style=" stroke:none;fill-rule:nonzero;fill:rgb(86.669922%,17.248535%,0%);fill-opacity:1;" d="M 294.0625 158.109375 L 266.222656 167.816406 L 270.65625 204.246094 L 294.078125 217 L 294.152344 216.960938 L 294.152344 158.136719 Z M 294.0625 158.109375 "/>
<path style=" stroke:none;fill-rule:nonzero;fill:rgb(74.119568%,74.119568%,74.119568%);fill-opacity:1;" d="M 294.152344 160.90625 L 294.152344 175.042969 L 306.878906 202.546875 L 313.421875 202.546875 Z M 294.152344 160.90625 "/>
<path style=" stroke:none;fill-rule:nonzero;fill:rgb(93.328857%,93.328857%,93.328857%);fill-opacity:1;" d="M 274.878906 202.546875 L 281.421875 202.546875 L 294.152344 175.042969 L 294.152344 160.90625 Z M 274.878906 202.546875 "/>
<path style=" stroke:none;fill-rule:nonzero;fill:rgb(74.119568%,74.119568%,74.119568%);fill-opacity:1;" d="M 294.152344 187.675781 L 303.054688 187.675781 L 303.054688 193.625 L 294.152344 193.625 Z M 294.152344 187.675781 "/>
<path style=" stroke:none;fill-rule:nonzero;fill:rgb(93.328857%,93.328857%,93.328857%);fill-opacity:1;" d="M 285.246094 187.675781 L 294.152344 187.675781 L 294.152344 193.625 L 285.246094 193.625 Z M 285.246094 187.675781 "/>
<g clip-path="url(#clip8)" clip-rule="nonzero">
<path style=" stroke:none;fill-rule:nonzero;fill:rgb(54.899597%,78.42865%,29.40979%);fill-opacity:1;" d="M 176.792969 257.71875 C 178.40625 256.804688 180.464844 256.796875 182.039062 257.71875 L 206.148438 271.316406 C 207.65625 272.164062 208.664062 273.847656 208.652344 275.585938 L 208.652344 302.851562 C 208.660156 304.660156 207.554688 306.378906 205.960938 307.210938 L 181.984375 320.746094 C 181.148438 321.210938 180.253906 321.425781 179.300781 321.402344 C 178.34375 321.375 177.464844 321.109375 176.65625 320.601562 L 169.460938 316.441406 C 168.96875 316.148438 168.417969 315.914062 168.070312 315.441406 C 168.378906 315.027344 168.921875 314.976562 169.367188 314.792969 C 170.367188 314.476562 171.285156 313.984375 172.207031 313.46875 C 172.4375 313.308594 172.722656 313.367188 172.945312 313.515625 L 179.082031 317.0625 C 179.519531 317.316406 179.960938 316.984375 180.339844 316.769531 L 203.882812 303.476562 C 204.175781 303.335938 204.335938 303.027344 204.3125 302.707031 L 204.3125 275.707031 C 204.34375 275.34375 204.136719 275.011719 203.808594 274.863281 L 179.886719 261.386719 C 179.746094 261.289062 179.589844 261.242188 179.417969 261.242188 C 179.246094 261.238281 179.089844 261.289062 178.949219 261.386719 L 155.0625 274.890625 C 154.742188 275.039062 154.519531 275.363281 154.558594 275.730469 L 154.558594 302.730469 C 154.53125 303.050781 154.699219 303.351562 154.992188 303.488281 L 161.375 307.09375 C 162.574219 307.738281 164.046875 308.101562 165.367188 307.628906 C 165.957031 307.40625 166.433594 307.035156 166.792969 306.511719 C 167.152344 305.992188 167.328125 305.414062 167.328125 304.78125 L 167.332031 277.941406 C 167.304688 277.542969 167.679688 277.214844 168.066406 277.253906 L 171.132812 277.253906 C 171.539062 277.246094 171.855469 277.671875 171.800781 278.074219 L 171.792969 305.082031 C 171.796875 307.484375 170.8125 310.09375 168.59375 311.269531 C 165.859375 312.683594 162.480469 312.386719 159.78125 311.027344 L 152.917969 307.230469 C 151.300781 306.421875 150.21875 304.679688 150.226562 302.867188 L 150.226562 275.601562 C 150.234375 274.699219 150.46875 273.863281 150.933594 273.089844 C 151.398438 272.316406 152.023438 271.710938 152.816406 271.28125 Z M 183.742188 276.617188 C 187.230469 276.414062 190.960938 276.484375 194.097656 278.203125 C 196.527344 279.519531 197.871094 282.28125 197.917969 284.984375 C 197.847656 285.347656 197.46875 285.550781 197.121094 285.523438 C 196.113281 285.523438 195.097656 285.539062 194.085938 285.519531 C 193.65625 285.535156 193.40625 285.136719 193.351562 284.757812 C 193.0625 283.464844 192.359375 282.1875 191.144531 281.5625 C 189.277344 280.628906 187.113281 280.675781 185.078125 280.695312 C 183.59375 280.777344 181.996094 280.902344 180.738281 281.773438 C 179.769531 282.4375 179.480469 283.796875 179.824219 284.847656 C 180.148438 285.621094 181.042969 285.871094 181.769531 286.101562 C 185.972656 287.199219 190.425781 287.109375 194.546875 288.539062 C 196.253906 289.128906 197.921875 290.277344 198.507812 292.0625 C 199.269531 294.457031 198.9375 297.324219 197.238281 299.246094 C 195.855469 300.828125 193.84375 301.667969 191.835938 302.15625 C 189.167969 302.753906 186.398438 302.765625 183.6875 302.5 C 181.136719 302.210938 178.484375 301.539062 176.515625 299.800781 C 174.832031 298.339844 174.015625 296.0625 174.09375 293.863281 C 174.113281 293.492188 174.484375 293.234375 174.839844 293.265625 L 177.871094 293.265625 C 178.277344 293.238281 178.574219 293.589844 178.597656 293.972656 C 178.785156 295.183594 179.246094 296.496094 180.320312 297.203125 C 182.390625 298.539062 184.988281 298.449219 187.359375 298.484375 C 189.320312 298.398438 191.527344 298.371094 193.132812 297.070312 C 193.980469 296.332031 194.226562 295.09375 194 294.027344 C 193.75 293.125 192.789062 292.707031 191.980469 292.410156 C 187.832031 291.097656 183.332031 291.574219 179.222656 290.089844 C 177.554688 289.5 175.945312 288.382812 175.304688 286.667969 C 174.410156 284.246094 174.820312 281.242188 176.703125 279.382812 C 178.519531 277.535156 181.183594 276.824219 183.707031 276.570312 Z M 183.742188 276.617188 "/>
</g>
<g clip-path="url(#clip9)" clip-rule="nonzero">
<path style=" stroke:none;fill-rule:nonzero;fill:rgb(0%,84.709167%,100%);fill-opacity:1;" d="M 97.570312 170.917969 C 96.921875 170.691406 96.25 170.480469 95.554688 170.277344 C 95.671875 169.8125 95.777344 169.347656 95.867188 168.894531 C 97.390625 161.445312 96.398438 155.445312 92.992188 153.46875 C 89.730469 151.574219 84.390625 153.550781 79 158.273438 C 78.484375 158.726562 77.960938 159.207031 77.445312 159.710938 C 77.097656 159.378906 76.753906 159.054688 76.410156 158.746094 C 70.757812 153.695312 65.097656 151.570312 61.695312 153.550781 C 58.4375 155.449219 57.472656 161.09375 58.84375 168.152344 C 58.976562 168.835938 59.128906 169.53125 59.304688 170.238281 C 58.503906 170.46875 57.730469 170.714844 56.992188 170.972656 C 50.367188 173.296875 46.136719 176.941406 46.136719 180.722656 C 46.136719 184.621094 50.679688 188.539062 57.578125 190.914062 C 58.121094 191.101562 58.6875 191.277344 59.269531 191.445312 C 59.078125 192.210938 58.914062 192.960938 58.777344 193.695312 C 57.46875 200.632812 58.492188 206.140625 61.742188 208.027344 C 65.101562 209.976562 70.738281 207.972656 76.226562 203.144531 C 76.660156 202.761719 77.09375 202.355469 77.53125 201.933594 C 78.097656 202.480469 78.660156 203 79.222656 203.484375 C 84.539062 208.089844 89.789062 209.949219 93.035156 208.058594 C 96.390625 206.101562 97.484375 200.183594 96.066406 192.984375 C 95.960938 192.433594 95.832031 191.875 95.691406 191.300781 C 96.089844 191.183594 96.476562 191.0625 96.855469 190.9375 C 104.027344 188.542969 108.691406 184.675781 108.691406 180.722656 C 108.691406 176.925781 104.328125 173.257812 97.570312 170.917969 Z M 96.015625 188.382812 C 95.671875 188.496094 95.320312 188.605469 94.964844 188.710938 C 94.171875 186.191406 93.105469 183.503906 91.796875 180.734375 C 93.042969 178.027344 94.070312 175.378906 94.839844 172.871094 C 95.480469 173.058594 96.101562 173.253906 96.699219 173.460938 C 102.488281 175.46875 106.019531 178.433594 106.019531 180.722656 C 106.019531 183.152344 102.207031 186.316406 96.015625 188.382812 Z M 93.445312 193.507812 C 94.074219 196.691406 94.160156 199.570312 93.746094 201.820312 C 93.375 203.84375 92.625 205.191406 91.699219 205.730469 C 89.726562 206.878906 85.511719 205.386719 80.964844 201.445312 C 80.441406 200.992188 79.917969 200.511719 79.390625 200 C 81.152344 198.0625 82.914062 195.804688 84.636719 193.296875 C 87.660156 193.03125 90.515625 192.585938 93.109375 191.984375 C 93.234375 192.503906 93.347656 193.007812 93.445312 193.507812 Z M 67.464844 205.53125 C 65.539062 206.214844 64.003906 206.234375 63.078125 205.695312 C 61.105469 204.550781 60.285156 200.128906 61.402344 194.195312 C 61.53125 193.515625 61.683594 192.816406 61.859375 192.105469 C 64.421875 192.675781 67.257812 193.085938 70.289062 193.332031 C 72.019531 195.785156 73.835938 198.039062 75.660156 200.011719 C 75.261719 200.398438 74.863281 200.769531 74.46875 201.117188 C 72.039062 203.253906 69.609375 204.769531 67.464844 205.53125 Z M 58.441406 188.367188 C 55.390625 187.316406 52.871094 185.953125 51.144531 184.460938 C 49.59375 183.125 48.8125 181.796875 48.8125 180.722656 C 48.8125 178.429688 52.207031 175.5 57.871094 173.511719 C 58.558594 173.273438 59.277344 173.042969 60.023438 172.832031 C 60.808594 175.394531 61.835938 178.074219 63.074219 180.785156 C 61.816406 183.535156 60.777344 186.257812 59.984375 188.855469 C 59.453125 188.699219 58.9375 188.535156 58.441406 188.367188 Z M 61.46875 167.636719 C 60.292969 161.585938 61.070312 157.023438 63.035156 155.878906 C 65.128906 154.660156 69.757812 156.398438 74.632812 160.757812 C 74.945312 161.039062 75.257812 161.328125 75.574219 161.632812 C 73.757812 163.597656 71.960938 165.832031 70.246094 168.269531 C 67.300781 168.546875 64.484375 168.988281 61.898438 169.578125 C 61.734375 168.917969 61.589844 168.269531 61.46875 167.636719 Z M 88.449219 174.34375 C 87.832031 173.269531 87.195312 172.21875 86.546875 171.195312 C 88.542969 171.449219 90.453125 171.785156 92.25 172.199219 C 91.714844 173.9375 91.039062 175.757812 90.25 177.625 C 89.683594 176.539062 89.082031 175.445312 88.449219 174.34375 Z M 77.445312 163.554688 C 78.679688 164.898438 79.914062 166.398438 81.128906 168.027344 C 79.902344 167.96875 78.664062 167.941406 77.414062 167.941406 C 76.179688 167.941406 74.949219 167.96875 73.734375 168.027344 C 74.949219 166.414062 76.195312 164.914062 77.445312 163.554688 Z M 66.371094 174.363281 C 65.753906 175.441406 65.164062 176.53125 64.605469 177.621094 C 63.828125 175.761719 63.160156 173.933594 62.617188 172.171875 C 64.402344 171.769531 66.304688 171.441406 68.289062 171.191406 C 67.632812 172.222656 66.992188 173.28125 66.371094 174.363281 Z M 68.347656 190.441406 C 66.296875 190.210938 64.367188 189.898438 62.582031 189.507812 C 63.132812 187.710938 63.8125 185.847656 64.609375 183.949219 C 65.167969 185.039062 65.761719 186.125 66.382812 187.207031 C 67.015625 188.3125 67.671875 189.386719 68.347656 190.441406 Z M 77.519531 198.074219 C 76.253906 196.699219 74.988281 195.175781 73.753906 193.542969 C 74.953125 193.585938 76.175781 193.613281 77.414062 193.613281 C 78.691406 193.613281 79.953125 193.582031 81.191406 193.527344 C 79.972656 195.195312 78.742188 196.71875 77.519531 198.074219 Z M 90.273438 183.851562 C 91.109375 185.773438 91.816406 187.625 92.375 189.394531 C 90.5625 189.808594 88.601562 190.144531 86.539062 190.394531 C 87.191406 189.359375 87.832031 188.289062 88.460938 187.1875 C 89.097656 186.078125 89.703125 184.960938 90.273438 183.851562 Z M 86.144531 185.84375 C 85.167969 187.554688 84.164062 189.179688 83.144531 190.71875 C 81.289062 190.851562 79.371094 190.921875 77.414062 190.921875 C 75.46875 190.921875 73.574219 190.863281 71.75 190.742188 C 70.691406 189.183594 69.667969 187.550781 68.695312 185.859375 C 67.726562 184.175781 66.832031 182.476562 66.027344 180.785156 C 66.832031 179.09375 67.722656 177.390625 68.6875 175.707031 C 69.652344 174.019531 70.667969 172.394531 71.71875 170.847656 C 73.578125 170.703125 75.488281 170.628906 77.414062 170.628906 C 79.351562 170.628906 81.261719 170.703125 83.121094 170.847656 C 84.15625 172.386719 85.167969 174.007812 86.136719 175.691406 C 87.117188 177.398438 88.019531 179.089844 88.832031 180.746094 C 88.019531 182.433594 87.121094 184.140625 86.144531 185.84375 Z M 91.65625 155.796875 C 93.753906 157.015625 94.566406 161.917969 93.25 168.351562 C 93.167969 168.761719 93.070312 169.179688 92.96875 169.605469 C 90.375 169 87.554688 168.550781 84.605469 168.273438 C 82.886719 165.808594 81.105469 163.570312 79.316406 161.628906 C 79.796875 161.164062 80.28125 160.71875 80.757812 160.300781 C 85.375 156.253906 89.691406 154.65625 91.65625 155.796875 Z M 77.414062 175.09375 C 80.5 175.09375 83 177.613281 83 180.71875 C 83 183.824219 80.5 186.34375 77.414062 186.34375 C 74.332031 186.34375 71.828125 183.824219 71.828125 180.71875 C 71.828125 177.613281 74.332031 175.09375 77.414062 175.09375 Z M 77.414062 175.09375 "/>
</g>
</g>
</svg>
